<?xml version="1.0" standalone="no"?>
<!DOCTYPE svg PUBLIC "-//W3C//DTD SVG 20010904//EN"
 "http://www.w3.org/TR/2001/REC-SVG-20010904/DTD/svg10.dtd">
<svg version="1.0" xmlns="http://www.w3.org/2000/svg"
 width="460.000000pt" height="460.000000pt" viewBox="0 0 460.000000 460.000000"
 preserveAspectRatio="xMidYMid meet">
<metadata>
Created by potrace 1.11, written by Peter Selinger 2001-2013
</metadata>
<g transform="translate(0.000000,460.000000) scale(0.100000,-0.100000)"
fill="#000000" stroke="none">
<path d="M2365 4480 c-209 -49 -566 -188 -744 -290 -89 -51 -262 -170 -334
-229 -78 -64 -83 -67 -232 -144 -160 -83 -369 -219 -411 -267 -72 -83 -170
-208 -208 -265 -103 -154 -192 -365 -227 -540 -29 -144 -28 -430 2 -585 34
-175 141 -412 271 -600 17 -25 88 -101 157 -170 151 -150 260 -228 480 -340
l83 -43 -6 -50 c-7 -49 -48 -177 -121 -372 -68 -185 -77 -218 -78 -291 0 -85
22 -134 69 -148 16 -5 39 -12 50 -17 l22 -8 -24 -47 c-13 -26 -24 -53 -24 -61
0 -11 191 -13 1098 -13 l1098 0 32 96 c56 164 61 304 16 441 -36 111 -132 289
-199 372 -64 79 -67 85 -50 97 10 8 23 14 27 14 12 0 176 97 268 160 41 27 83
50 92 50 9 0 26 12 38 27 44 56 105 84 280 128 104 26 238 79 402 159 150 74
210 111 342 211 l66 50 0 89 c0 96 2 94 -52 46 -9 -8 -51 -42 -93 -75 -42 -33
-94 -75 -116 -92 -23 -18 -47 -33 -54 -33 -7 0 -18 -7 -25 -15 -42 -51 -446
-251 -549 -271 -39 -8 -39 -2 -1 46 17 21 30 42 30 47 0 6 18 38 40 72 22 33
43 73 46 89 4 15 20 51 35 80 15 30 31 72 34 94 4 23 18 73 31 111 13 38 28
105 34 149 5 44 12 83 15 88 10 15 96 61 152 81 64 22 229 39 376 39 l97 0 -2
221 -3 222 -97 66 c-54 36 -121 80 -149 96 -28 17 -67 40 -86 53 -106 69 -436
254 -528 296 -50 23 -72 43 -130 113 -78 95 -207 219 -275 265 -81 56 -194
123 -227 137 -47 19 -54 31 -83 149 -28 108 -71 205 -155 348 -62 105 -112
149 -191 172 -60 17 -216 13 -309 -8z m-1405 -887 c-14 -46 -24 -62 -51 -77
-19 -10 -48 -31 -66 -46 -17 -16 -38 -32 -45 -37 -23 -14 -135 -147 -156 -184
-99 -178 -127 -285 -118 -454 10 -195 45 -274 148 -330 45 -25 67 -30 144 -33
106 -5 145 10 225 85 27 25 49 44 49 41 0 -38 -78 -177 -134 -238 -146 -160
-383 -228 -505 -145 -50 35 -115 134 -124 192 -4 21 -15 79 -26 128 -20 90
-20 90 0 168 11 43 24 102 30 130 10 54 69 213 95 257 8 14 30 54 48 90 19 36
43 74 55 84 12 11 21 25 21 32 0 49 367 392 421 394 4 0 -1 -26 -11 -57z m460
-1247 c186 -45 282 -66 300 -66 24 0 25 -14 4 -71 -10 -28 -17 -80 -18 -144
-1 -93 1 -105 30 -165 62 -130 239 -268 394 -308 30 -7 80 -20 110 -27 66 -17
238 -35 324 -35 118 1 314 61 373 116 14 13 30 24 35 24 9 0 108 100 108 110
0 3 12 19 26 35 29 33 71 114 99 188 l18 47 63 0 c72 0 94 -6 94 -27 0 -12
-22 -69 -51 -128 -5 -11 -13 -35 -19 -53 -5 -18 -29 -71 -55 -117 -107 -198
-345 -372 -620 -454 -154 -47 -221 -53 -489 -49 -212 4 -249 7 -311 27 -38 12
-77 25 -85 30 -9 5 -31 12 -50 16 -19 4 -59 23 -88 41 -29 19 -56 34 -60 34
-20 0 -160 130 -221 204 -86 105 -172 359 -156 459 10 58 62 207 80 227 8 8
24 37 36 64 17 40 24 47 42 43 12 -3 51 -12 87 -21z"/>
</g>
</svg>
